<svg width="121" height="20" viewBox="0 0 121 20" fill="none" xmlns="http://www.w3.org/2000/svg">
<path d="M2.48719 8.1778H2.54308C2.99022 8.20561 6.76293 8.23342 8.13228 8.1778C10.0326 8.09436 10.5636 6.78718 10.5356 5.09062C10.4797 2.19812 6.95855 2.36499 6.95855 2.36499H2.48719V8.1778ZM10.1723 9.59623C13.6097 11.3484 13.2184 19.4697 13.2184 19.4697H10.5356C10.5356 19.4697 10.5915 14.0184 9.41779 12.155C8.49558 10.7087 7.62925 10.6531 6.51141 10.6253C4.75082 10.6253 4.24779 10.6253 2.48719 10.6253V19.4697H0V0.000935159H7.07033C7.07033 0.000935159 13.1905 -0.193751 13.1905 5.03499C13.1905 5.03499 13.2743 8.48374 10.1723 9.59623Z" fill="white"/>
<path d="M18.3394 0.000671387H25.5774V0.0284835H26.3878L29.7134 19.4694H26.9747L25.7451 12.3772H18.5909L17.3613 19.4694H14.6226L17.9761 0.0284835H18.3394V0.000671387ZM20.2676 2.42036L19.038 9.73503H25.2979L24.0962 2.42036H20.2676Z" fill="white"/>
<path d="M42.7299 0.000671387H45.6642L39.7117 10.9032V19.4694H37.0569V10.9032L31.1044 0.000671387H34.0387L38.3424 8.23316L42.7299 0.000671387Z" fill="white"/>
<path d="M55.1866 8.1778C57.059 8.09436 57.7017 6.78718 57.6458 5.09062C57.5341 2.11468 54.0129 2.30937 54.0129 2.30937H49.5415V8.1778H49.5974C50.0445 8.20561 53.8172 8.23342 55.1866 8.1778ZM60.2448 5.03499C60.2448 5.03499 60.664 10.7365 54.46 10.6253C52.6994 10.6253 51.3021 10.6253 49.5415 10.6253V19.4697H47.0543V0.000935159H54.1247C54.1247 0.000935159 60.2448 -0.193751 60.2448 5.03499Z" fill="white"/>
<path d="M72.2611 0.000671387H74.7762V19.4694H72.2611V10.9588H64.1567V19.4694H61.6416V0.000671387H64.1567V8.45566H72.2611V0.000671387Z" fill="white"/>
<path d="M76.1665 19.4694V0.000671387H78.6816V19.4694H76.1665Z" fill="white"/>
<path d="M80.0721 0.000671387H82.5873V16.9663H91.8653V19.4694H82.5873H80.0721V16.9663V0.000671387Z" fill="white"/>
<path d="M93.2566 0.000671387H95.7717V16.9663H105.05V19.4694H95.7717H93.2566V16.9663V0.000671387Z" fill="white"/>
<path d="M118.066 0.000671387H121L115.048 10.9032V19.4694H112.393V10.9032L106.44 0.000671387H109.375L113.678 8.23316L118.066 0.000671387Z" fill="white"/>
</svg>
